<svg width="351" height="253" viewBox="0 0 351 253" fill="none" xmlns="http://www.w3.org/2000/svg">
<g clip-path="url(#clip0_37_210)">
<path d="M58.9007 242.856C58.6195 242.869 58.3411 242.795 58.1032 242.645C57.8654 242.494 57.6795 242.274 57.5709 242.014C57.4623 241.754 57.4362 241.467 57.496 241.191C57.5559 240.916 57.6989 240.666 57.9056 240.474L57.9997 240.1C57.9873 240.07 57.9749 240.04 57.9623 240.01C57.679 239.341 57.2043 238.769 56.5977 238.369C55.9912 237.968 55.2799 237.756 54.5532 237.759C53.8264 237.761 53.1167 237.979 52.5132 238.384C51.9096 238.789 51.4391 239.364 51.1608 240.036C50.0484 242.717 48.632 245.403 48.2833 248.238C48.1297 249.492 48.1945 250.762 48.4748 251.993C45.862 246.289 44.5053 240.089 44.4965 233.814C44.496 232.239 44.5834 230.666 44.7584 229.101C44.903 227.818 45.1036 226.544 45.3602 225.28C46.7606 218.418 49.7673 211.987 54.1334 206.514C56.2466 205.36 57.9556 203.586 59.03 201.43C59.4193 200.655 59.6944 199.827 59.8468 198.973C59.6084 199.005 58.948 195.371 59.1278 195.148C58.7956 194.644 58.201 194.393 57.8381 193.901C56.0337 191.452 53.5477 191.88 52.2498 195.207C49.4774 196.607 49.4505 198.93 51.1517 201.164C52.234 202.585 52.3827 204.508 53.3323 206.029C53.2346 206.154 53.133 206.276 53.0353 206.401C51.2494 208.699 49.6928 211.167 48.3879 213.769C48.7053 210.854 48.3265 207.905 47.2829 205.165C46.2251 202.611 44.2426 200.46 42.4967 198.252C40.3996 195.601 36.0993 196.758 35.7299 200.12C35.7263 200.152 35.7228 200.185 35.7194 200.217C35.9787 200.364 36.2326 200.519 36.4809 200.683C36.793 200.892 37.0347 201.19 37.1746 201.539C37.3144 201.887 37.3458 202.27 37.2647 202.637C37.1835 203.003 36.9936 203.337 36.7197 203.594C36.4459 203.85 36.1009 204.018 35.73 204.076L35.6921 204.081C35.7844 205.017 35.9477 205.944 36.1805 206.854C33.9408 215.523 38.7762 218.681 45.6806 218.823C45.833 218.901 45.9816 218.979 46.134 219.053C44.823 222.772 44.0006 226.645 43.6876 230.576C43.5104 232.895 43.5209 235.224 43.7189 237.541L43.7071 237.459C43.2069 234.882 41.8334 232.557 39.8187 230.877C36.8264 228.417 32.5989 227.511 29.3707 225.533C29.0276 225.313 28.6287 225.195 28.221 225.194C27.8133 225.193 27.4138 225.309 27.0696 225.528C26.7255 225.746 26.451 226.059 26.2786 226.429C26.1062 226.799 26.0431 227.21 26.0966 227.615C26.101 227.643 26.1054 227.672 26.1099 227.701C26.5911 227.897 27.0596 228.123 27.5128 228.377C27.7721 228.524 28.0259 228.679 28.2743 228.844C28.5863 229.052 28.8281 229.35 28.9679 229.699C29.1078 230.047 29.1392 230.43 29.058 230.797C28.9768 231.163 28.7869 231.497 28.513 231.754C28.2392 232.011 27.8943 232.179 27.5234 232.236L27.4854 232.242C27.4581 232.246 27.4346 232.25 27.4073 232.253C28.2295 234.218 29.3836 236.027 30.8189 237.6C32.2193 245.168 38.2343 245.886 44.6685 243.682H44.6724C45.3783 246.752 46.4012 249.741 47.7245 252.599H58.6275C58.6666 252.478 58.7018 252.353 58.7369 252.232C57.7277 252.295 56.7146 252.235 55.72 252.052C56.529 251.058 57.3379 250.057 58.1468 249.064C58.1649 249.045 58.1819 249.025 58.1977 249.005C58.608 248.496 59.0222 247.992 59.4325 247.483L59.4328 247.483C59.4546 245.924 59.2756 244.369 58.9007 242.856Z" fill="#E0E0E7"/>
<path d="M71.4395 252.355H89.0335C92.0426 242.214 89.0496 218.25 93.0159 208.454C100.625 189.673 110.347 169.857 128.491 160.686C136.238 156.771 144.685 155.241 153.312 155.325C165.229 155.438 177.48 158.639 188.697 162.882C193.286 164.614 197.832 166.518 202.361 168.464C219.423 175.802 236.299 183.794 254.647 185.954C277.864 188.685 305.161 178.289 311.503 155.896C316.342 138.751 307.626 120.952 298.485 105.64C289.344 90.3287 279.126 73.9459 280.795 56.2181C280.801 56.1586 280.807 56.0931 280.819 56.0336C281.447 49.6662 285.246 45.09 290.553 42.1562H267.449C267.144 58.6938 276.703 73.2913 285.306 87.7044C294.447 103.01 303.163 120.815 298.324 137.96C291.982 160.347 239.474 134.105 216.256 131.367C209.7 130.599 220.115 133.331 213.863 131.367C204.058 128.29 202.971 156.509 193.429 152.367C187.489 149.784 181.542 147.219 175.518 144.94C173.024 143.994 170.475 143.107 167.897 142.286C167.894 142.286 167.892 142.285 167.89 142.284C167.888 142.283 167.886 142.282 167.885 142.28C150.572 136.793 131.638 134.657 115.641 142.59C115.533 142.643 115.42 142.697 115.312 142.75C97.1676 151.915 87.4463 171.731 79.8368 190.512C73.5493 206.038 74.5383 235.978 71.4395 252.355Z" fill="#E0E0E7"/>
<path d="M175.733 251.835C89.8672 253.656 87.9844 216.012 87.9844 171.238C87.9844 126.463 127.14 91.4368 175.661 91.4368C224.182 91.4368 262.718 126.45 262.718 171.223C262.718 215.997 224.254 251.835 175.733 251.835Z" fill="white"/>
<path d="M175.245 252.325C89.3789 254.145 87.4961 216.502 87.4961 171.727C87.4961 126.952 126.971 90.5271 175.492 90.5271C224.014 90.5271 263.489 126.954 263.489 171.727C263.489 216.501 223.766 252.325 175.245 252.325ZM175.492 92.7614C128.306 92.7614 90.712 128.191 89.9174 171.727C89.1783 212.221 135.796 262.751 175.492 250.694C196.78 229.059 256.967 205.758 261.068 171.727C266.282 128.452 222.679 92.7614 175.492 92.7614Z" fill="#3F3D56"/>
<path d="M2.57646e-06 252.417C-0.00022537 252.494 0.0146741 252.57 0.0438439 252.641C0.0730136 252.711 0.115878 252.776 0.169971 252.83C0.224064 252.884 0.288318 252.927 0.359037 252.956C0.429756 252.985 0.505544 253 0.58204 253H350.418C350.572 253 350.72 252.939 350.83 252.829C350.939 252.72 351 252.572 351 252.417C351 252.263 350.939 252.115 350.83 252.006C350.72 251.896 350.572 251.835 350.418 251.835H0.58204C0.505544 251.835 0.429757 251.85 0.359039 251.879C0.288321 251.908 0.224068 251.951 0.169975 252.005C0.115883 252.059 0.0730183 252.124 0.0438478 252.194C0.0146774 252.265 -0.000223423 252.341 2.57646e-06 252.417Z" fill="#E0E0E7"/>
<path d="M235.726 244.962H229.684L226.811 221.641L235.727 221.641L235.726 244.962Z" fill="#A0616A"/>
<path d="M235.939 251.27L217.361 251.269V251.034C217.361 249.115 218.123 247.274 219.479 245.917C220.835 244.56 222.675 243.797 224.592 243.797L227.986 241.221L234.317 243.798L235.939 243.798L235.939 251.27Z" fill="#2F2E41"/>
<path d="M226.546 190.903C219.648 184.199 211.719 178.645 203.064 174.452L198.649 179.44L201.461 173.693C189.876 168.398 177.299 165.626 164.564 165.558C151.828 165.491 139.223 168.131 127.583 173.303L129.876 178.289L126.354 173.857C117.262 178.09 108.941 183.816 101.736 190.797C100.995 191.488 100.538 192.429 100.452 193.439C100.415 193.987 100.496 194.538 100.69 195.052C100.884 195.566 101.186 196.033 101.575 196.421C102.685 196.947 104.267 198.154 106.618 201.467C107.338 202.178 108.308 202.58 109.32 202.586C110.333 202.592 111.308 202.203 112.037 201.5C125.995 187.978 144.66 180.417 164.086 180.417C183.512 180.417 202.177 187.978 216.135 201.5C216.865 202.203 217.84 202.592 218.852 202.586C219.864 202.58 220.834 202.178 221.555 201.467C223.92 199.338 224.473 196.328 226.504 196.513C227.22 195.82 227.654 194.887 227.723 193.894C227.753 193.34 227.664 192.786 227.461 192.27C227.258 191.754 226.946 191.288 226.546 190.903Z" fill="#73C0FD"/>
<path d="M180.487 198.161L174.446 198.16L171.572 174.839L180.488 174.84L180.487 198.161Z" fill="#A0616A"/>
<path d="M180.699 204.468L162.121 204.467V204.232C162.121 202.313 162.883 200.472 164.239 199.115C165.595 197.758 167.434 196.996 169.352 196.995L172.746 194.419L179.077 196.996L180.699 196.996L180.699 204.468Z" fill="#2F2E41"/>
<path d="M242.632 112.297L199.759 116.78L189.225 127.198L172.468 132.674C170.358 133.363 168.509 134.681 167.168 136.451C165.827 138.22 165.058 140.358 164.963 142.577C164.527 152.805 163.665 169.787 162.756 169.609C161.454 169.355 164.055 175.718 165.877 175.349C167.699 174.979 169.593 179.129 168.334 179.866C167.074 180.604 169.172 186.915 169.172 186.915L182.295 184.799C183.938 172.398 189.938 159.328 182.867 150.204C194.842 146.314 205.391 143.062 213.148 141.058L217.343 139.316L226.054 231.943L238.372 232.145C241.771 214.646 243.478 198.895 240.822 187.66C240.822 187.66 241.203 153.906 242.66 154.275C244.117 154.645 242.882 150.247 242.882 150.247C242.882 150.247 241.606 146.502 243.174 144.949C244.741 143.395 243.762 134.258 243.762 134.258C246.353 125.61 245.573 118.47 242.632 112.297Z" fill="#2F2E41"/>
<path d="M247.701 93.3966C248.126 91.4907 248.55 89.5847 248.975 87.6785C250.167 82.341 251.358 77.0059 252.547 71.6731C254.108 64.686 255.675 57.4555 254.333 50.4243C254.131 49.3669 253.85 48.3264 253.49 47.312C251.479 41.5562 247.039 36.5126 241.151 35.4505L240.189 31.863L227.051 30.2444L224.564 33.6765C219.212 33.2482 216.035 38.5819 212.343 42.9773L210.875 44.4458C209.806 45.7842 209.587 50.8125 208.919 52.2776C205.95 58.7925 210.042 52.4612 209.897 59.6199C209.748 67.0383 208.291 74.2368 208.141 81.6547C208.125 82.4506 206.414 83.0574 206.119 84.4528C205.96 85.206 207.286 86.6032 207.085 87.4452C206.914 88.1639 207.771 91.0523 207.587 91.7952C206.734 95.2413 204.802 96.5981 204.718 98.2973C204.679 98.9512 204.582 99.6003 204.427 100.237C204.321 100.688 202.84 100.147 202.696 100.606C202.454 101.377 203.52 103.151 203.227 103.923C202.662 105.416 203.042 108.052 202.696 109.417C201.242 115.144 201.8 112.871 198.648 117.869C206.715 120.31 210.2 128.484 218.498 129.955C218.872 128.745 219.245 127.532 219.616 126.316C220.716 126.387 221.823 126.453 222.93 126.514C222.992 127.57 223.054 128.626 223.117 129.676C231.528 130.218 239.965 130.264 248.382 129.813C248.1 128.967 247.874 128.102 247.707 127.226C247.245 124.788 248.238 122.145 248.344 119.732C248.419 117.945 247.57 116.427 247.595 114.502C247.601 114.145 249.6 113.846 249.593 113.483C249.562 110.283 247.745 106.002 248.344 102.858C248.969 99.6276 246.989 96.6094 247.701 93.3976L247.701 93.3966Z" fill="#3F3D56"/>
<path d="M186.245 16.1067C185.131 16.108 184.063 16.5514 183.275 17.3398C182.487 18.1281 182.044 19.1969 182.043 20.3118V45.6495C182.044 46.7643 182.487 47.8332 183.275 48.6215C184.063 49.4098 185.131 49.8533 186.245 49.8545H194.077C195.191 49.8533 196.259 49.4098 197.046 48.6215C197.834 47.8332 198.277 46.7643 198.278 45.6495C199.527 32.9179 199.068 26.047 198.278 20.3118C198.277 19.1969 197.834 18.1281 197.046 17.3398C196.259 16.5514 195.191 16.108 194.077 16.1067L186.245 16.1067Z" fill="#73C0FD"/>
<path d="M185.267 16.1067C184.153 16.108 183.085 16.5514 182.298 17.3397C181.51 18.128 181.067 19.1968 181.066 20.3116C180.616 30.2716 180.303 39.7703 181.066 45.6494C181.067 46.7643 181.51 47.8331 182.298 48.6215C183.085 49.4098 184.153 49.8533 185.267 49.8545H193.1C194.213 49.8532 195.281 49.4098 196.069 48.6215C196.857 47.8332 197.3 46.7643 197.301 45.6495V20.3118C197.3 19.1969 196.857 18.1281 196.069 17.3398C195.281 16.5515 194.213 16.108 193.1 16.1067L185.267 16.1067Z" fill="#3F3D56"/>
<path d="M205.43 52.9832C205.43 52.9832 212.838 52.6825 209.068 55.8837C206.614 57.9669 201.089 72.4692 195.349 74.2236C194.673 74.4298 193.961 74.4933 193.26 74.41C192.558 74.3267 191.881 74.0985 191.272 73.7397C190.663 73.381 190.136 72.8996 189.722 72.3261C189.309 71.7525 189.019 71.0993 188.871 70.4078L183.668 46.1343L190.465 45.0996L194.607 64.3111L205.43 52.9832Z" fill="#A0616A"/>
<path d="M187.442 47.9073C190.097 47.9073 192.249 45.7532 192.249 43.096C192.249 40.4388 190.097 38.2847 187.442 38.2847C184.787 38.2847 182.635 40.4388 182.635 43.096C182.635 45.7532 184.787 47.9073 187.442 47.9073Z" fill="#A0616A"/>
<path d="M215.479 39.7192C219.883 43.0292 221.18 53.8832 218.413 58.6487C213.123 67.7584 202.694 74.7722 202.249 73.7981C201.64 72.4642 200.579 74.2553 200.615 74.8417C200.651 75.428 198.642 75.2532 198.876 75.8737C199.11 76.4942 197.524 76.629 196.836 76.9888C196.836 76.9888 190.534 77.0954 188.545 74.2172C186.557 71.3389 186.291 67.3614 186.291 67.3614L183.822 64.4549L196.909 56.7987L195.83 61.9664L202.358 54.3586L203.74 51.3064L205.944 50.1799L206.675 47.88L208.707 46.9603L216.745 37.593L215.479 39.7192Z" fill="#3F3D56"/>
<path d="M251.637 128.884C252.187 128.521 252.65 128.043 252.994 127.482C253.339 126.92 253.556 126.29 253.631 125.636C253.706 124.982 253.636 124.319 253.427 123.695C253.219 123.07 252.876 122.499 252.422 122.021L253.347 80.8628L245.221 82.128L245.794 122.049C245.043 122.864 244.617 123.927 244.596 125.035C244.576 126.144 244.962 127.222 245.683 128.064C246.403 128.907 247.407 129.455 248.504 129.607C249.602 129.758 250.717 129.501 251.637 128.884Z" fill="#A0616A"/>
<path d="M251.993 45.7793C251.993 45.7793 251.454 46.187 254.218 50.4023C254.766 51.2383 255.138 54.609 255.398 59.0076C255.483 60.4406 256.298 61.4473 256.361 63.0464C256.415 64.4035 255.719 66.3371 255.761 67.7444C255.783 68.4951 256.342 69.1482 256.361 69.8993C256.369 70.2123 255.838 70.6251 255.845 70.937C255.854 71.2734 255.861 71.6088 255.869 71.9432C256.059 80.3032 256.1 87.8537 256.288 87.7262C256.69 87.4543 255.692 88.8598 256.191 89.0945C256.691 89.3292 255.764 90.4935 256.003 91.097C256.294 91.8323 255.932 92.6434 255.704 93.3815C255.045 95.5128 254.902 97.3428 254.329 98.3552C255.01 98.7461 255.541 99.3526 255.84 100.079C256.138 100.806 256.186 101.611 255.977 102.368L244.525 100.296C243.128 98.0569 243.33 95.7072 244.281 95.2978L243.998 88.0127L240.736 50.3227L250.296 46.0511L251.993 45.7793Z" fill="#3F3D56"/>
<path d="M180.911 22.6052C180.747 22.6052 180.613 22.6836 180.613 22.78V24.1784C180.613 24.2749 180.747 24.3532 180.911 24.3532C181.076 24.3532 181.21 24.2749 181.21 24.1784V22.78C181.21 22.6836 181.076 22.6052 180.911 22.6052Z" fill="#3F3D56"/>
<path d="M180.911 26.311C180.747 26.311 180.613 26.3894 180.613 26.4858V29.1953C180.613 29.2917 180.747 29.3701 180.911 29.3701C181.076 29.3701 181.21 29.2917 181.21 29.1953V26.4858C181.21 26.3894 181.076 26.311 180.911 26.311Z" fill="#3F3D56"/>
<path d="M197.539 26.8005C197.451 26.8106 197.371 26.8545 197.315 26.923C197.259 26.9915 197.233 27.0792 197.241 27.1671V32.8492C197.232 32.8935 197.232 32.9393 197.243 32.9833C197.254 33.0272 197.274 33.0683 197.303 33.1034C197.331 33.1385 197.367 33.1668 197.408 33.1862C197.449 33.2057 197.494 33.2157 197.539 33.2157C197.584 33.2157 197.629 33.2057 197.67 33.1862C197.71 33.1668 197.746 33.1385 197.775 33.1034C197.804 33.0683 197.824 33.0272 197.835 32.9833C197.845 32.9393 197.846 32.8935 197.837 32.8492V27.1671C197.845 27.0792 197.818 26.9915 197.763 26.923C197.707 26.8545 197.627 26.8106 197.539 26.8005Z" fill="#3F3D56"/>
<path d="M180.421 30.6462C180.257 30.6462 180.123 30.7246 180.123 30.821V33.5305C180.123 33.6269 180.257 33.7053 180.421 33.7053C180.586 33.7053 180.719 33.6269 180.719 33.5305V30.821C180.719 30.7246 180.586 30.6462 180.421 30.6462Z" fill="#3F3D56"/>
<path d="M232.7 28.9736C239.481 28.9736 244.978 23.472 244.978 16.6854C244.978 9.89882 239.481 4.39722 232.7 4.39722C225.919 4.39722 220.422 9.89882 220.422 16.6854C220.422 23.472 225.919 28.9736 232.7 28.9736Z" fill="#A0616A"/>
<path d="M246.41 22.3314C245.451 24.2512 244.539 25.452 242.882 26.5252C242.797 26.2805 242.729 26.0306 242.678 25.7769C242.502 26.1715 242.329 26.5652 242.149 26.9608C241.1 27.5467 242.232 26.6427 240.516 27.2978L239.072 24.8183C238.677 23.6412 239.237 22.3593 239.949 21.3407C240.663 20.3263 241.55 19.3963 241.937 18.2169C242.324 17.0375 241.981 15.4751 240.822 15.0361C239.68 14.5977 238.419 15.4294 237.205 15.2849C235.805 15.1196 234.852 13.6531 234.776 12.2422C234.7 10.8313 235.275 9.47659 235.838 8.18548C234.142 9.40192 228.888 11.5813 226.028 11.6854C225.951 10.7926 225.539 9.96211 224.874 9.3613C224.991 10.1742 224.793 11.0009 224.321 11.6729C221.521 11.5291 220.995 15.5997 219.549 14.1257C220 13.8984 218.337 8.8397 218.788 8.61241C218.441 7.66002 218.094 6.71039 217.748 5.76353C218.391 5.92582 219.04 6.09138 219.687 6.25278C219.728 5.90656 219.833 5.57106 219.997 5.26385C220.459 5.00047 220.95 4.79292 221.461 4.64559C221.625 4.60161 221.794 4.55675 221.964 4.5202C222.216 4.46397 222.472 4.42232 222.729 4.39546C222.356 4.17941 221.981 3.96838 221.608 3.7482C221.563 3.72293 221.523 3.69677 221.478 3.6715C222.002 3.31089 222.55 2.98561 223.118 2.69784C225.51 1.44519 227.993 0.168793 230.69 0.0126561C232.442 -0.0989955 234.179 0.401385 235.604 1.42842C236.833 2.31158 238.32 2.7595 239.832 2.70132C240.567 2.69571 241.294 2.85773 241.957 3.1751C241.653 3.48137 241.321 3.75806 240.965 4.00142C241.743 4.02167 242.517 4.04281 243.296 4.06723C244.169 4.8619 244.904 5.7949 245.474 6.82881C248.203 11.4955 248.827 17.4968 246.41 22.3314Z" fill="#2F2E41"/>
<path d="M206.982 213.773C206.889 213.159 206.65 212.577 206.287 212.074C205.924 211.571 205.446 211.163 204.892 210.882C199.702 208.223 194.262 206.084 188.652 204.495L183.402 211.422L187.282 204.113C172.92 200.257 157.824 200.042 143.359 203.489L145.378 209.061L142.08 203.808C135.566 205.447 129.26 207.82 123.281 210.882C122.73 211.164 122.254 211.573 121.891 212.074C121.528 212.575 121.289 213.155 121.192 213.767C121.096 214.378 121.145 215.004 121.337 215.592C121.528 216.181 121.855 216.716 122.292 217.154C124.562 217.294 126.061 219.405 127.557 222.423C128.13 222.99 128.864 223.365 129.659 223.497C130.453 223.629 131.269 223.513 131.995 223.163C142.021 218.39 152.984 215.914 164.087 215.914C175.189 215.914 186.152 218.39 196.179 223.163C196.904 223.513 197.72 223.63 198.514 223.497C199.309 223.365 200.043 222.99 200.616 222.423C201.515 219.983 203.369 218.539 205.881 217.154C206.32 216.719 206.649 216.185 206.841 215.597C207.032 215.009 207.08 214.383 206.982 213.773Z" fill="#73C0FD"/>
<path d="M177.973 237.628C176.823 237.447 175.667 237.289 174.503 237.154L169.942 244.418L173.341 237.031C167.818 236.466 162.256 236.407 156.723 236.856L160.202 244.418L155.519 236.96C153.732 237.13 151.957 237.352 150.196 237.628C149.593 237.717 149.028 237.975 148.564 238.371C148.101 238.768 147.759 239.287 147.578 239.87C147.384 240.457 147.358 241.086 147.501 241.688C147.645 242.289 147.952 242.839 148.39 243.275C150.273 245.122 152.35 247.686 155.763 250.654C156.096 250.992 156.498 251.253 156.942 251.42C157.385 251.587 157.86 251.656 158.333 251.621C160.224 251.481 162.159 251.41 164.085 251.41C166.01 251.41 167.945 251.481 169.837 251.621C170.309 251.655 170.784 251.586 171.227 251.419C171.671 251.252 172.073 250.991 172.407 250.654C175.931 247.643 177.712 244.883 179.779 243.275C180.217 242.839 180.525 242.289 180.668 241.688C180.812 241.086 180.785 240.457 180.592 239.87C180.41 239.287 180.068 238.768 179.605 238.371C179.142 237.975 178.576 237.717 177.973 237.628Z" fill="#73C0FD"/>
</g>
<defs>
<clipPath id="clip0_37_210">
<rect width="351" height="253" fill="white"/>
</clipPath>
</defs>
</svg>
